# Basic placeholder tree: short cylinder trunk + cone top
mtllib tree.mtl

v 0.150000 0.000000 0.000000
v 0.106066 0.000000 0.106066
v 0.000000 0.000000 0.150000
v -0.106066 0.000000 0.106066
v -0.150000 0.000000 0.000000
v -0.106066 0.000000 -0.106066
v 0.000000 0.000000 -0.150000
v 0.106066 0.000000 -0.106066
v 0.150000 0.400000 0.000000
v 0.106066 0.400000 0.106066
v 0.000000 0.400000 0.150000
v -0.106066 0.400000 0.106066
v -0.150000 0.400000 0.000000
v -0.106066 0.400000 -0.106066
v 0.000000 0.400000 -0.150000
v 0.106066 0.400000 -0.106066
v 0.000000 0.000000 0.000000
v 0.600000 0.400000 0.000000
v 0.424264 0.400000 0.424264
v 0.000000 0.400000 0.600000
v -0.424264 0.400000 0.424264
v -0.600000 0.400000 0.000000
v -0.424264 0.400000 -0.424264
v 0.000000 0.400000 -0.600000
v 0.424264 0.400000 -0.424264
v 0.000000 0.400000 0.000000
v 0.000000 1.600000 0.000000

vt 0.000 0.000
vt 0.125 0.000
vt 0.250 0.000
vt 0.375 0.000
vt 0.500 0.000
vt 0.625 0.000
vt 0.750 0.000
vt 0.875 0.000
vt 0.000 0.333
vt 0.125 0.333
vt 0.250 0.333
vt 0.375 0.333
vt 0.500 0.333
vt 0.625 0.333
vt 0.750 0.333
vt 0.875 0.333
vt 0.500 0.500
vt 0.000 0.666
vt 0.125 0.666
vt 0.250 0.666
vt 0.375 0.666
vt 0.500 0.666
vt 0.625 0.666
vt 0.750 0.666
vt 0.875 0.666
vt 0.500 0.500
vt 0.500 1.000

vn 1.000000 0.000000 0.000000
vn 0.707107 0.000000 0.707107
vn 0.000000 0.000000 1.000000
vn -0.707107 0.000000 0.707107
vn -1.000000 0.000000 0.000000
vn -0.707107 0.000000 -0.707107
vn 0.000000 0.000000 -1.000000
vn 0.707107 0.000000 -0.707107
vn 0.000000 -1.000000 0.000000
vn 0.894427 0.447214 0.000000
vn 0.632456 0.447214 0.632456
vn 0.000000 0.447214 0.894427
vn -0.632456 0.447214 0.632456
vn -0.894427 0.447214 0.000000
vn -0.632456 0.447214 -0.632456
vn 0.000000 0.447214 -0.894427
vn 0.632456 0.447214 -0.632456
vn 0.000000 -1.000000 0.000000
vn 0.000000 1.000000 0.000000

o Tree_Trunk
usemtl bark

f 1/1/1 9/9/1 10/10/2 2/2/2
f 2/2/2 10/10/2 11/11/3 3/3/3
f 3/3/3 11/11/3 12/12/4 4/4/4
f 4/4/4 12/12/4 13/13/5 5/5/5
f 5/5/5 13/13/5 14/14/6 6/6/6
f 6/6/6 14/14/6 15/15/7 7/7/7
f 7/7/7 15/15/7 16/16/8 8/8/8
f 8/8/8 16/16/8 9/9/1 1/1/1

f 17/17/9 1/1/9 2/2/9
f 17/17/9 2/2/9 3/3/9
f 17/17/9 3/3/9 4/4/9
f 17/17/9 4/4/9 5/5/9
f 17/17/9 5/5/9 6/6/9
f 17/17/9 6/6/9 7/7/9
f 17/17/9 7/7/9 8/8/9
f 17/17/9 8/8/9 1/1/9

o Tree_Top
usemtl leaves

f 26/26/18 18/18/18 19/19/18
f 26/26/18 19/19/18 20/20/18
f 26/26/18 20/20/18 21/21/18
f 26/26/18 21/21/18 22/22/18
f 26/26/18 22/22/18 23/23/18
f 26/26/18 23/23/18 24/24/18
f 26/26/18 24/24/18 25/25/18
f 26/26/18 25/25/18 18/18/18

f 18/18/10 27/27/19 19/19/11
f 19/19/11 27/27/19 20/20/12
f 20/20/12 27/27/19 21/21/13
f 21/21/13 27/27/19 22/22/14
f 22/22/14 27/27/19 23/23/15
f 23/23/15 27/27/19 24/24/16
f 24/24/16 27/27/19 25/25/17
f 25/25/17 27/27/19 18/18/10
